<svg xmlns="http://www.w3.org/2000/svg" xmlns:xlink="http://www.w3.org/1999/xlink" viewBox="0,0,256,256" width="64px" height="64px"><g fill="none" fill-rule="nonzero" stroke="none" stroke-width="1" stroke-linecap="butt" stroke-linejoin="miter" stroke-miterlimit="10" stroke-dasharray="" stroke-dashoffset="0" font-family="none" font-weight="none" font-size="none" text-anchor="none" style="mix-blend-mode: normal"><g transform="scale(4,4)"><path d="M45,22h-6v-4c0,-3.859 -3.141,-7 -7,-7c-3.859,0 -7,3.141 -7,7v4h-6v-4c0,-7.168 5.832,-13 13,-13c7.168,0 13,5.832 13,13z" fill="#9c34c2"></path><ellipse cx="32" cy="61" rx="19" ry="3" fill="#000000" opacity="0.3"></ellipse><path d="M48,19h-32c-3.314,0 -6,2.686 -6,6v23c0,3.314 2.686,6 6,6h32c3.314,0 6,-2.686 6,-6v-23c0,-3.314 -2.686,-6 -6,-6z" fill="#ffa500"></path><circle cx="32" cy="37" r="4" fill="#9c34c2"></circle><path d="M30,24c2.761,0 5,-2.239 5,-5h-19c-3.314,0 -6,2.686 -6,6v18c2.761,0 5,-2.239 5,-5v-13c0,-0.551 0.449,-1 1,-1z" fill="#ffffff" opacity="0.3"></path><path d="M54,48v-17c-2.761,0 -5,2.239 -5,5v12c0,0.551 -0.449,1 -1,1h-17c-2.761,0 -5,2.239 -5,5h22c3.314,0 6,-2.686 6,-6z" fill="#000000" opacity="0.15"></path><path d="M14,31c-0.828,0 -1.5,-0.672 -1.5,-1.5v-4.5c0,-1.93 1.57,-3.5 3.5,-3.5h5.5c0.828,0 1.5,0.672 1.5,1.5c0,0.828 -0.672,1.5 -1.5,1.5h-5.5c-0.275,0 -0.5,0.225 -0.5,0.5v4.5c0,0.828 -0.672,1.5 -1.5,1.5z" fill="#ffffff"></path><circle cx="20" cy="37" r="4" fill="#9c34c2"></circle><circle cx="44" cy="37" r="4" fill="#9c34c2"></circle></g></g></svg>